<?xml version="1.0" encoding="UTF-8" standalone="no"?>
<svg
   version="1.0"
   width="256.000000pt"
   height="256.000000pt"
   viewBox="0 0 256.000000 256.000000"
   preserveAspectRatio="xMidYMid meet"
   id="svg1"
   sodipodi:docname="arrow_right_dev.svg"
   inkscape:version="1.4 (86a8ad7, 2024-10-11)"
   xmlns:inkscape="http://www.inkscape.org/namespaces/inkscape"
   xmlns:sodipodi="http://sodipodi.sourceforge.net/DTD/sodipodi-0.dtd"
   xmlns="http://www.w3.org/2000/svg"
   xmlns:svg="http://www.w3.org/2000/svg">
  <defs
     id="defs1" />
  <sodipodi:namedview
     id="namedview1"
     pagecolor="#505050"
     bordercolor="#eeeeee"
     borderopacity="1"
     inkscape:showpageshadow="0"
     inkscape:pageopacity="0"
     inkscape:pagecheckerboard="0"
     inkscape:deskcolor="#505050"
     inkscape:document-units="pt"
     inkscape:zoom="1.4843854"
     inkscape:cx="233.42994"
     inkscape:cy="213.89323"
     inkscape:window-width="1920"
     inkscape:window-height="974"
     inkscape:window-x="-11"
     inkscape:window-y="-11"
     inkscape:window-maximized="1"
     inkscape:current-layer="svg1"
     showgrid="false">
    <inkscape:grid
       id="grid3"
       units="pt"
       originx="0"
       originy="0"
       spacingx="0.99999997"
       spacingy="0.99999997"
       empcolor="#0099e5"
       empopacity="0.30196078"
       color="#0099e5"
       opacity="0.14901961"
       empspacing="5"
       enabled="true"
       visible="false" />
  </sodipodi:namedview>
  <g
     transform="translate(0.000000,256.000000) scale(0.100000,-0.100000)"
     fill="#000000"
     stroke="none"
     id="g1"
     style="opacity:1">
    <path
       d="M 170,2240 V 320 C 170,142.96312 313.00147,0 490,0 541.62488,0 595.33422,11.351029 653.58238,44.980623 L 2290,1002.87 c 102.8249,59.366 160,168.1627 160,277.13 0,108.9618 -56.206,217.2045 -160,277.13 L 649.87941,2517.1572 C 597.96827,2547.1281 541.63888,2560 490,2560 313.00118,2560 170,2415.999 170,2240 Z"
       id="path1"
       sodipodi:nodetypes="scsccsccss"
       style="display:none;fill:#0000ff" />
    <path
       d="M 506.35072,2144.6932 V 415.30695 c 0,-159.46101 128.80475,-288.23101 288.23148,-288.23101 46.49972,0 94.87697,10.2241 147.34246,40.51501 L 2415.8842,1030.3829 C 2508.5011,1083.8552 2560,1181.8507 2560,1280 c 0,98.1443 -50.6262,195.6409 -144.1158,249.6171 L 938.58931,2394.3346 c -46.75757,26.9953 -97.49477,38.5894 -144.00711,38.5894 -159.42699,0 -288.23148,-129.7048 -288.23148,-288.2308 z"
       id="path8"
       sodipodi:nodetypes="scsccsccss"
       style="fill:#000000;stroke-width:0.900721" />
  </g>
  <g
     inkscape:groupmode="layer"
     id="layer1"
     inkscape:label="Layer 1"
     style="display:none">
    <circle
       style="opacity:0.416;fill:#ff0000;stroke-width:0.749996"
       id="path3"
       cx="49"
       cy="32"
       r="32" />
    <circle
       style="opacity:0.416;fill:#ff0000;stroke-width:0.749996"
       id="path4"
       cx="49"
       cy="224"
       r="32" />
    <circle
       style="opacity:0.416;fill:#ff0000;stroke-width:0.749996"
       id="path5"
       cx="213"
       cy="128"
       r="32" />
  </g>
  <g
     inkscape:groupmode="layer"
     id="layer2"
     inkscape:label="Layer 2"
     style="display:none;opacity:0.43">
    <circle
       style="fill:#ff0000;stroke-width:1.10224"
       id="path6"
       cx="128"
       cy="128"
       r="128" />
  </g>
</svg>
