<?xml version="1.0" encoding="UTF-8" standalone="no"?><!--Created with Inkscape (http://www.inkscape.org/)--><svg width="377mm" height="100mm" viewBox="0 0 377 100" version="1.1" id="svg1" xml:space="preserve" inkscape:version="1.4 (86a8ad7, 2024-10-11)" sodipodi:docname="logo.svg" inkscape:export-filename="..\logo.png" inkscape:export-xdpi="260.09601" inkscape:export-ydpi="260.09601" xmlns:inkscape="http://www.inkscape.org/namespaces/inkscape" xmlns:sodipodi="http://sodipodi.sourceforge.net/DTD/sodipodi-0.dtd" xmlns:xlink="http://www.w3.org/1999/xlink" xmlns="http://www.w3.org/2000/svg" xmlns:svg="http://www.w3.org/2000/svg"><sodipodi:namedview id="namedview1" pagecolor="#505050" bordercolor="#eeeeee" borderopacity="1" inkscape:showpageshadow="0" inkscape:pageopacity="0" inkscape:pagecheckerboard="0" inkscape:deskcolor="#505050" inkscape:document-units="mm" inkscape:zoom="0.59707213" inkscape:cx="671.61064" inkscape:cy="44.383247" inkscape:window-width="1920" inkscape:window-height="974" inkscape:window-x="-11" inkscape:window-y="-11" inkscape:window-maximized="1" inkscape:current-layer="svg1" showguides="false"/><defs id="defs1"><inkscape:path-effect effect="mirror_symmetry" start_point="196.43013,3.9263863" end_point="196.43013,57.910267" center_point="196.43013,30.918327" id="path-effect10" is_visible="true" lpeversion="1.2" lpesatellites="" mode="free" discard_orig_path="false" fuse_paths="false" oposite_fuse="false" split_items="false" split_open="false" link_styles="false"/><linearGradient id="linearGradient4" inkscape:collect="always"><stop style="stop-color:#998000;stop-opacity:1" offset="0.43694493" id="stop4"/><stop style="stop-color:#e5d300;stop-opacity:1" offset="0.63587928" id="stop5"/></linearGradient><linearGradient id="linearGradient2" inkscape:collect="always"><stop style="stop-color:#998000;stop-opacity:1" offset="0.39431617" id="stop2"/><stop style="stop-color:#e5d300;stop-opacity:1" offset="0.57193607" id="stop3"/></linearGradient><inkscape:path-effect effect="fillet_chamfer" id="path-effect16" is_visible="true" lpeversion="1" nodesatellites_param="F,0,1,1,0,14.2875,0,1 @ F,0,1,1,0,14.2875,0,1 @ F,0,1,1,0,14.2875,0,1 @ F,0,1,1,0,14.2875,0,1" radius="54" unit="px" method="auto" mode="F" chamfer_steps="1" flexible="false" use_knot_distance="true" apply_no_radius="true" apply_with_radius="true" only_selected="true" hide_knots="false"/><linearGradient id="linearGradient14" inkscape:collect="always"><stop style="stop-color:#998000;stop-opacity:1" offset="0" id="stop14"/><stop style="stop-color:#e5d300;stop-opacity:1" offset="1" id="stop15"/></linearGradient><linearGradient id="linearGradient12" inkscape:collect="always"><stop style="stop-color:#998000;stop-opacity:1" offset="0" id="stop12"/><stop style="stop-color:#e5d300;stop-opacity:1" offset="0.78759402" id="stop13"/></linearGradient><inkscape:path-effect effect="mirror_symmetry" start_point="50,0" end_point="50,100" center_point="50,50" id="path-effect12" is_visible="true" lpeversion="1.2" lpesatellites="" mode="vertical" discard_orig_path="false" fuse_paths="false" oposite_fuse="false" split_items="false" split_open="false" link_styles="false"/><inkscape:path-effect effect="mirror_symmetry" start_point="50,0" end_point="50,100" center_point="50,50" id="path-effect11" is_visible="false" lpeversion="1.2" lpesatellites="" mode="vertical" discard_orig_path="false" fuse_paths="false" oposite_fuse="false" split_items="false" split_open="false" link_styles="false"/><inkscape:path-effect effect="mirror_symmetry" start_point="50,0" end_point="50,100" center_point="50,50" id="path-effect9" is_visible="true" lpeversion="1.2" lpesatellites="" mode="vertical" discard_orig_path="false" fuse_paths="false" oposite_fuse="false" split_items="false" split_open="false" link_styles="false"/><inkscape:path-effect effect="fillet_chamfer" id="path-effect4" is_visible="true" lpeversion="1" nodesatellites_param="F,0,0,1,0,10.583333,0,1 @ F,0,0,1,0,0,0,1 @ F,0,0,1,0,0,0,1 @ F,0,1,1,0,3.571875,0,1 @ F,0,0,1,0,0,0,1 @ F,0,0,1,0,0,0,1" radius="13.5" unit="px" method="auto" mode="F" chamfer_steps="1" flexible="false" use_knot_distance="false" apply_no_radius="true" apply_with_radius="true" only_selected="true" hide_knots="false"/><inkscape:path-effect effect="mirror_symmetry" start_point="48.5,-1.5" end_point="48.5,98.5" center_point="48.5,48.5" id="path-effect8" is_visible="true" lpeversion="1.2" lpesatellites="" mode="vertical" discard_orig_path="false" fuse_paths="false" oposite_fuse="false" split_items="false" split_open="false" link_styles="false"/><inkscape:path-effect effect="mirror_symmetry" start_point="-1.5,48.5" end_point="98.5,48.5" center_point="48.5,48.5" id="path-effect9-1" is_visible="true" lpeversion="1.2" lpesatellites="" mode="horizontal" discard_orig_path="false" fuse_paths="false" oposite_fuse="false" split_items="false" split_open="false" link_styles="false"/><linearGradient inkscape:collect="always" xlink:href="#linearGradient12" id="linearGradient13" x1="50" y1="79.000298" x2="50" y2="20.9998" gradientUnits="userSpaceOnUse"/><linearGradient inkscape:collect="always" xlink:href="#linearGradient2" id="linearGradient3" x1="242.98796" y1="160.8174" x2="242.98796" y2="-98.980972" gradientUnits="userSpaceOnUse" gradientTransform="scale(0.98152968,1.0188179)"/><linearGradient inkscape:collect="always" xlink:href="#linearGradient4" id="linearGradient5" x1="207.55687" y1="209.77908" x2="207.55687" y2="-12.136963" gradientUnits="userSpaceOnUse"/><linearGradient inkscape:collect="always" xlink:href="#linearGradient14" id="linearGradient15-2" x1="50" y1="97.5" x2="50" y2="2.5" gradientUnits="userSpaceOnUse" gradientTransform="translate(1.5,1.5)"/></defs><path style="display:inline;fill:#4d4d4d;fill-opacity:1;stroke-width:0;stroke-dasharray:none" d="m 14.2875,0 h 348.425 A 14.2875,14.2875 45 0 1 377,14.2875 v 71.425 A 14.2875,14.2875 135 0 1 362.7125,100 H 14.2875 A 14.2875,14.2875 45 0 1 0,85.7125 V 14.2875 A 14.2875,14.2875 135 0 1 14.2875,0 Z" id="path16" sodipodi:nodetypes="ccccc" inkscape:label="bg" inkscape:original-d="M 0,0 H 377 V 100 H 0 Z" inkscape:path-effect="#path-effect16"/><path d="m 115.98956,87.33026 h 3.59088 v 0.718175 c -0.68435,0 -1.0014,0.696338 -1.26399,1.43635 l -5.19959,20.827075 -4.94104,-17.580924 -4.39523,17.580924 -5.860309,-20.827075 c -0.363229,-0.938342 -0.655378,-1.388774 -1.321442,-1.43635 V 87.33026 h 4.309051 v 0.718175 c -0.41329,0.0435 -0.86172,0.170811 -0.919265,1.14908 l 4.021775,14.392225 3.38979,-13.559142 c -0.29738,-1.130087 -0.63581,-1.922931 -1.46508,-1.982163 V 87.33026 h 4.30905 v 0.718175 c -0.2537,0 -0.91921,0.09998 -0.91921,1.14908 l 4.02178,14.392225 3.53342,-14.104955 c 0,-1.298474 -0.46315,-1.395646 -0.89054,-1.43635 z m 5.02724,22.26342 c 0.78808,0 1.36108,-0.56869 1.43635,-1.32144 V 89.312423 c -0.0762,-0.647444 -0.68713,-1.189066 -1.43635,-1.263988 V 87.33026 h 12.92715 v 0.718175 c -0.97629,0.08875 -1.37849,0.886642 -1.43635,1.43635 h -7.89993 v 8.618099 h 7.89993 v 0.718175 c -0.97629,0.08875 -1.37849,0.886642 -1.43635,1.436351 h -6.46358 v 7.89992 h 7.89993 c 0.0234,0.22235 0.20141,1.32409 1.43635,1.43635 v 0.71818 H 121.0168 Z m 14.3635,0 c 0.87806,0 1.43635,-0.69521 1.43635,-1.43635 V 89.369877 c -0.0627,-0.564342 -0.52654,-1.234793 -1.43635,-1.321442 V 87.33026 h 5.7454 c 3.75868,0 6.46357,3.14612 6.46357,6.463575 0,2.461786 -1.30672,3.849928 -2.35561,4.567592 1.43008,0.893793 3.07379,2.763443 3.07379,5.486853 0,3.5922 -2.91756,6.46358 -6.46358,6.46358 h -6.46357 z m 6.46357,-1.43635 c 2.11389,0 4.30905,-1.69731 4.30905,-4.30905 0,-2.515 -2.10732,-4.309046 -4.30905,-4.309046 h -2.8727 v 8.618096 z m 3.59088,-14.363495 c 0,-2.51497 -2.10732,-4.30905 -4.30905,-4.30905 h -2.15453 v 7.899924 h 2.15453 c 0.57742,0 4.30905,-0.133737 4.30905,-3.590874 z m 4.30905,15.799845 c 0.95689,-0.0911 1.38209,-0.94813 1.43635,-1.43635 h 5.02722 c 2.11387,0 4.30905,-1.69731 4.30905,-4.30905 0,-2.51498 -2.10732,-4.309046 -4.30905,-4.309046 -3.16878,0 -6.46357,-1.85163 -6.46357,-5.745399 0,-3.986787 3.32202,-6.463575 6.46357,-6.463575 h 6.46358 v 0.718175 c -0.94018,0.08953 -1.37277,0.864091 -1.43635,1.43635 h -5.02723 c -2.65728,0 -4.30905,2.243849 -4.30905,4.30905 0,3.447737 3.69561,3.590874 4.30905,3.590874 3.75834,0 6.46358,3.145791 6.46358,6.463571 0,3.26655 -2.61127,6.46358 -6.46358,6.46358 h -6.46357 z m 14.3635,-22.26342 h 5.02722 v 0.718175 c -0.78808,0 -1.36106,0.568686 -1.43635,1.321442 v 18.902363 c 0.11335,1.07695 1.0201,1.2836 1.43635,1.32144 v 0.71818 h -5.02722 v -0.71818 c 0.87806,0 1.43635,-0.69521 1.43635,-1.43635 V 89.369877 c -0.0627,-0.564342 -0.52654,-1.234793 -1.43635,-1.321442 z m 7.89993,2.154525 c 0,-0.778945 -0.64167,-1.43635 -1.43635,-1.43635 V 87.33026 h 13.64533 v 0.718175 c -1.06676,0.09697 -1.38862,0.949339 -1.43635,1.378896 v 0.05745 h -4.30905 v 18.787459 c 0.0753,0.75314 0.64862,1.32144 1.43635,1.32144 v 0.71818 h -5.02723 v -0.71818 c 0.90925,-0.0866 1.37358,-0.7565 1.43635,-1.32144 V 89.484785 Z m 13.64532,20.108895 c 0.78808,0 1.36108,-0.56869 1.43635,-1.32144 V 89.312423 c -0.0762,-0.647444 -0.68713,-1.189066 -1.43635,-1.263988 V 87.33026 h 12.92715 v 0.718175 c -0.97629,0.08875 -1.37849,0.886642 -1.43635,1.43635 h -7.89993 v 8.618099 h 7.89993 v 0.718175 c -0.97629,0.08875 -1.37849,0.886642 -1.43635,1.436351 h -6.46358 v 7.89992 h 7.89993 c 0.0234,0.22252 0.20145,1.32409 1.43635,1.43635 v 0.71818 h -12.92715 z m 32.31786,-20.108895 c -1.8948,0 -4.30905,1.475748 -4.30905,4.30905 v 10.054445 c 0,2.55203 2.11406,4.30905 4.30905,4.30905 h 5.02723 v 0.0575 c 0.12315,1.17002 1.12866,1.35092 1.43635,1.37889 v 0.71818 h -6.46358 c -4.05717,0 -6.46357,-3.342 -6.46357,-6.46358 V 93.793835 c 0,-3.530904 2.86859,-6.463575 6.46357,-6.463575 h 6.46358 v 0.718175 c -0.97629,0.08875 -1.37849,0.886642 -1.43635,1.43635 z m 7.89993,4.30905 c 0,-3.986787 3.32202,-6.463575 6.46357,-6.463575 3.75835,0 6.46358,3.145795 6.46358,6.463575 v 10.054445 c 0,3.5922 -2.91756,6.46358 -6.46358,6.46358 -3.05792,0 -6.46357,-2.33706 -6.46357,-6.46358 z m 10.77262,0 c 0,-2.515002 -2.10732,-4.30905 -4.30905,-4.30905 -2.65728,0 -4.30905,2.243849 -4.30905,4.30905 v 10.054445 c 0,2.13945 1.70404,4.30905 4.30905,4.30905 2.49621,0 4.30905,-2.0699 4.30905,-4.30905 z m 3.59087,-6.463575 h 5.02723 v 0.718175 c -0.90778,-0.0043 -1.41262,0.702298 -1.43635,1.867255 l 3.82069,13.67405 3.36106,-13.415507 c 0.0923,-1.527707 -0.59486,-2.045656 -1.43635,-2.125798 V 87.33026 h 5.02722 v 0.718175 c -0.78801,0 -1.36105,0.568597 -1.43635,1.321442 v 18.902363 c 0.11335,1.07695 1.0201,1.2836 1.43635,1.32144 v 0.71818 h -5.02722 v -0.71818 c 0.87806,0 1.43635,-0.69521 1.43635,-1.43635 V 95.948359 l -3.59088,14.363501 -3.59087,-12.754789 v 10.715169 c 0.11334,1.07678 1.01973,1.28357 1.43635,1.32144 v 0.71818 h -5.02723 v -0.71818 c 0.87807,0 1.43635,-0.6952 1.43635,-1.43635 V 89.886963 c -0.22021,-0.770786 -0.60937,-1.72014 -1.37889,-1.838528 h -0.0575 z m 19.39071,20.94198 c 0.11335,1.07695 1.0201,1.2836 1.43635,1.32144 v 0.71818 h -5.02722 v -0.71818 c 0.87806,0 1.43635,-0.69521 1.43635,-1.43635 V 89.369877 c -0.0627,-0.564342 -0.52654,-1.234793 -1.43635,-1.321442 V 87.33026 h 6.46357 c 3.36381,0 6.46358,2.750613 6.46358,6.463575 0,3.266549 -2.61127,6.463575 -6.46358,6.463575 h -2.8727 z m 7.18175,-14.478405 c 0,-2.160923 -1.75445,-4.30905 -4.30905,-4.30905 h -2.8727 v 8.618099 h 2.8727 c 2.49618,0 4.30905,-2.069898 4.30905,-4.309049 z m 3.59087,-6.463575 h 5.02723 v 0.718175 c -0.788,0 -1.36107,0.568597 -1.43635,1.321442 v 18.902363 c 0.11334,1.07678 1.01973,1.28357 1.43635,1.32144 v 0.71818 h -5.02723 v -0.71818 c 0.87807,0 1.43635,-0.6952 1.43635,-1.43635 V 89.369877 c -0.0627,-0.564342 -0.52654,-1.234793 -1.43635,-1.321442 z m 6.4636,22.26342 c 0.87805,0 1.43635,-0.69521 1.43635,-1.43635 V 89.369877 c -0.0627,-0.564305 -0.52653,-1.23479 -1.43635,-1.321442 V 87.33026 h 5.02722 v 0.718175 c -0.788,0 -1.36107,0.568597 -1.43635,1.321442 v 18.787453 h 7.89993 c 0.0234,0.22235 0.20141,1.32409 1.43635,1.43635 v 0.71818 h -12.92715 z m 14.36349,0 c 0.78808,0 1.36108,-0.56869 1.43635,-1.32144 V 89.312423 c -0.0762,-0.647444 -0.68713,-1.189066 -1.43635,-1.263988 V 87.33026 h 12.92715 v 0.718175 c -0.97629,0.08875 -1.37849,0.886667 -1.43635,1.43635 h -7.89992 v 8.618099 h 7.89992 v 0.718175 c -0.97629,0.08875 -1.37849,0.886667 -1.43635,1.436351 h -6.46357 v 7.89992 h 7.89992 c 0.0234,0.22242 0.20141,1.32409 1.43635,1.43635 v 0.71818 h -12.92715 z m 17.95437,-1.32144 c 0.11335,1.07689 1.01993,1.28359 1.43635,1.32144 v 0.71818 h -5.02722 v -0.71818 c 0.87805,0 1.43635,-0.69521 1.43635,-1.43635 V 89.369877 c -0.0627,-0.564305 -0.52653,-1.23479 -1.43635,-1.321442 V 87.33026 h 6.46357 c 3.75868,0 6.46358,3.146131 6.46358,6.463575 0,3.153038 -2.31073,5.658389 -4.91232,6.291215 l 3.3036,8.07228 c 0.30856,0.90713 0.88456,1.33102 1.60872,1.43635 v 0.71818 h -4.30905 v -0.71818 c 0.66483,0.0385 0.66199,-0.56963 0.60326,-1.26398 l -3.13124,-7.72757 -0.14364,-0.34472 h -2.35561 z m 7.18175,-14.478405 c 0,-2.331192 -1.93288,-4.30905 -4.30905,-4.30905 h -2.8727 v 8.618099 h 2.8727 c 2.11385,0 4.30905,-1.697306 4.30905,-4.309049 z" id="text2" style="font-size:28.727px;font-family:'Roman Font 7';-inkscape-font-specification:'Roman Font 7, ';fill:url(#linearGradient5);stroke-width:0" inkscape:label="text_sub" transform="scale(1.1490822,0.87025977)" aria-label="Website Compiler" sodipodi:nodetypes="cccccccccccccccccccccccccccccccccccccccccccccscccsscssccsssccsssccssccssssscccssssscccccccccccscccccccccccccccccccccccccccccccccccccccssssccccsssscccsssssssssssssssccccccccccccccccsccccccccscccccccccscccsssccssccsscccccccccsccccscccccccccccccccccccccccccccccccccccccscccsscccccccccccssccss"/><path id="path8" style="font-size:67.4801px;font-family:'Roman Font 7';-inkscape-font-specification:'Roman Font 7, ';fill:url(#linearGradient3);stroke-width:0" d="m 125.90239,4.0002726 c -7.11598,0 -14.90245,5.804447 -14.90245,15.4683064 0,9.378862 7.67064,13.750065 14.90245,13.750065 5.01953,0 9.93531,4.236967 9.93531,10.312549 0,6.311886 -5.12407,10.312549 -9.93531,10.312549 h -11.59051 c -0.12769,1.193062 -1.12417,3.221255 -3.31194,3.437517 v 1.718758 h 14.90245 c 9.28333,0 14.90297,-8.052816 14.90297,-15.468824 0,-8.003378 -6.29801,-15.468823 -14.90297,-15.468823 -5.76687,0 -9.9348,-3.162932 -9.9348,-8.593791 0,-5.005883 3.86455,-10.312032 9.9348,-10.312032 h 11.59102 c 0.14748,-1.3779578 1.1502,-3.2238118 3.31195,-3.4375162 V 4.0002726 Z m 21.91856,0 v 1.7187582 c 1.8137,0 3.31195,1.5535782 3.31195,3.4375162 h 9.93479 V 54.11866 c -0.14703,1.373685 -1.23564,2.957409 -3.31143,3.162599 v 1.718758 h 11.59051 v -1.718758 c -1.80136,0 -3.1364,-1.345574 -3.31143,-3.162599 V 9.156547 h 9.93479 V 9.018571 c 0.11308,-1.0565455 0.87242,-3.0693385 3.31195,-3.2995402 V 4.0002726 Z m 44.98124,0 -13.51185,49.8434694 c -0.84274,2.25979 -1.51763,3.324119 -3.04683,3.437517 v 1.718758 h 9.93531 v -1.718758 c -1.01806,-0.111226 -1.9849,-0.372233 -2.11977,-2.750221 l 1.59008,-5.843571 h 14.30559 l 1.59008,5.843571 c -0.13488,2.377725 -1.10136,2.638952 -2.11976,2.750221 v 1.718758 h 9.93531 v -1.718758 c -1.52953,-0.11342 -2.20438,-1.178456 -3.04685,-3.437517 z m 12.22716,0 v 1.7187582 c 1.81225,0 3.31143,1.551391 3.31143,3.4375162 h 9.9353 V 54.11866 c -0.14701,1.373541 -1.23532,2.957326 -3.31194,3.162599 v 1.718758 h 11.59102 v -1.718758 c -1.80153,0 -3.13687,-1.345126 -3.31194,-3.162599 V 9.156547 h 9.93531 V 9.018571 c 0.11344,-1.0599104 0.87376,-3.0695146 3.31143,-3.2995402 V 4.0002726 Z m 37.58478,0 v 1.7187582 c 2.0786,0.2054818 3.16448,1.789148 3.31143,3.1620808 V 53.843742 c 0,1.79302 -1.30457,3.437517 -3.31143,3.437517 v 1.718758 h 11.59102 V 57.281259 C 251.49849,57.02587 250.9856,55.029682 250.89321,54.11866 V 8.8811116 c 0.17482,-1.8148211 1.50722,-3.1620808 3.31194,-3.1620808 V 4.0002726 Z m 32.45074,0 c -7.11601,0 -14.90246,5.8044457 -14.90246,15.4683064 v 24.062614 c 0,9.582263 7.57254,15.468824 14.90246,15.468824 h 14.90296 v -1.718758 c -2.79182,-0.263424 -3.24009,-2.5915 -3.31194,-3.300058 v -0.137459 h -11.59102 c -5.48358,0 -9.9348,-4.616139 -9.9348,-10.312549 V 19.468579 c 0,-5.005927 3.86456,-10.312032 9.9348,-10.312032 h 11.59102 c 0.13598,-1.3410504 1.07958,-3.2268639 3.31194,-3.4375162 V 4.0002726 Z m 21.38939,0 v 1.7187582 c 2.19115,0.2166082 3.18457,2.2474816 3.31194,3.4375162 v 34.374646 c 0,9.582251 7.57253,15.468824 14.90245,15.468824 9.28331,0 14.90245,-8.052763 14.90245,-15.468824 V 9.156547 c 0.15813,-1.6416003 1.36664,-3.4375162 3.31194,-3.4375162 V 4.0002726 h -11.59102 v 1.7187582 c 2.19112,0.2166077 3.18457,2.2474619 3.31194,3.4375162 v 34.374646 c 0,6.305998 -5.11883,10.312549 -9.93531,10.312549 -5.94399,0 -9.93531,-5.125452 -9.93531,-10.312549 V 9.156547 c 0.15813,-1.6416026 1.36664,-3.4375162 3.31194,-3.4375162 V 4.0002726 Z m 54.64318,0 c -7.58985,0 -14.90297,6.3058194 -14.90297,15.4683064 0,10.755985 9.41153,13.750065 14.90297,13.750065 5.48503,0 9.93478,4.743728 9.93478,10.312549 0,6.311883 -5.12381,10.312549 -9.93478,10.312549 H 339.5064 c -0.1277,1.193076 -1.12417,3.221251 -3.31193,3.437517 v 1.718758 h 14.90297 c 7.68712,0 14.90244,-6.363058 14.90244,-15.468824 0,-8.003643 -6.2978,-15.468823 -14.90244,-15.468823 -5.66368,0 -9.93532,-3.086325 -9.93532,-8.593791 0,-5.005509 3.86471,-10.312032 9.93532,-10.312032 h 11.5905 c 0.14748,-1.3779696 1.1502,-3.2238151 3.31194,-3.4375162 V 4.0002726 Z M 192.80167,20.087663 h 5.2e-4 l 5.76192,23.44353 h -11.52436 z" inkscape:label="text_main" sodipodi:nodetypes="ssssscccssssscccscccccccccccccccccccccccccccccccccccccccccccccccccccscccccccccssssccccsssscccscccsssccccccsssccccssssscccssssscccsccccc"/><path id="path9" style="display:inline;fill:url(#linearGradient13);stroke-width:0;stroke-dasharray:none" d="M 50.000049,0 C 44.708355,0.06172562 41.579799,0.75063766 37.999748,1.9998779 L 44,20.299955 c 1.815738,-0.170144 4.274448,-0.299911 6.000049,-0.299911 z m 0,25 C 46.214144,25 42.672461,25.324709 39.5,26 L 37,20 C 28.789478,23.341761 23.337279,30.776148 20.999752,39.499915 V 72.000256 C 25.841035,83.492306 33.374071,92.292712 42.00002,100.0001 V 60.999894 C 37.075717,60.084499 32.448844,58.276383 27.999841,55.935087 v -8.934855 c 5.921208,1.709125 11.92006,2.718692 17.999935,2.999817 v 17.740002 c 1.333333,4.102847 2.66694,5.617022 4.000273,7.260022 z m -9.8e-5,-25 c 5.291694,0.06172562 8.42025,0.75063766 12.000301,1.9998779 L 56,20.299955 c -1.815738,-0.170144 -4.274448,-0.299911 -6.000049,-0.299911 z m 0,25 C 53.785856,25 57.327539,25.324709 60.5,26 L 63,20 c 8.210522,3.341761 13.662721,10.776148 16.000248,19.499915 V 72.000256 C 74.158965,83.492306 66.625929,92.292712 57.99998,100.0001 V 60.999894 c 4.924303,-0.915395 9.551176,-2.723511 14.000179,-5.064807 v -8.934855 c -5.921208,1.709125 -11.92006,2.718692 -17.999935,2.999817 v 17.740002 c -1.333333,4.102847 -2.66694,5.617022 -4.000273,7.260022 z" sodipodi:nodetypes="cccccccccccccccccc" inkscape:label="helmet"/><path style="display:inline;fill:url(#linearGradient15-2);stroke-width:0;stroke-dasharray:none" d="M 14.58333,4 C 8.73832,4 4,8.73832 4,14.583333 V 28.5 h 2.35 c 0,-2.412763 2.09148,-4.500187 4.65009,-4.500187 v -9.427848 c 0,-1.972693 1.59918,-3.571875 3.57188,-3.571875 h 9.42784 C 23.99981,8.781553 25.99203,6.35 28.5,6.35 V 4 Z M 85.41667,4 C 91.26168,4 96,8.73832 96,14.583333 V 28.5 h -2.35 c 0,-2.412763 -2.09148,-4.500187 -4.65009,-4.500187 v -9.427848 c 0,-1.972693 -1.59918,-3.571875 -3.57188,-3.571875 H 76.00019 C 76.00019,8.781553 74.00797,6.35 71.5,6.35 V 4 Z M 14.58333,96 C 8.73832,96 4,91.26168 4,85.416667 V 71.5 h 2.35 c 0,2.412763 2.09148,4.500187 4.65009,4.500187 v 9.427848 c 0,1.972693 1.59918,3.571875 3.57188,3.571875 h 9.42784 c 0,2.218537 1.99222,4.65009 4.50019,4.65009 V 96 Z m 70.83334,0 C 91.26168,96 96,91.26168 96,85.416667 V 71.5 h -2.35 c 0,2.412763 -2.09148,4.500187 -4.65009,4.500187 v 9.427848 c 0,1.972693 -1.59918,3.571875 -3.57188,3.571875 H 76.00019 C 76.00019,91.218447 74.00797,93.65 71.5,93.65 V 96 Z" id="path15" inkscape:label="corner" sodipodi:nodetypes="sscccsscccs"/></svg>