<?xml version="1.0" encoding="UTF-8" standalone="no"?>
<!-- Uploaded to: SVG Repo, www.svgrepo.com, Generator: SVG Repo Mixer Tools -->

<svg
   fill="#000000"
   width="800px"
   height="800px"
   viewBox="0 0 24 24"
   version="1.1"
   id="svg1"
   sodipodi:docname="link2.svg"
   inkscape:version="1.4 (86a8ad7, 2024-10-11)"
   xml:space="preserve"
   xmlns:inkscape="http://www.inkscape.org/namespaces/inkscape"
   xmlns:sodipodi="http://sodipodi.sourceforge.net/DTD/sodipodi-0.dtd"
   xmlns="http://www.w3.org/2000/svg"
   xmlns:svg="http://www.w3.org/2000/svg"><defs
     id="defs1" /><sodipodi:namedview
     id="namedview1"
     pagecolor="#505050"
     bordercolor="#eeeeee"
     borderopacity="1"
     inkscape:showpageshadow="0"
     inkscape:pageopacity="0"
     inkscape:pagecheckerboard="0"
     inkscape:deskcolor="#505050"
     inkscape:zoom="0.91875"
     inkscape:cx="421.22449"
     inkscape:cy="333.60544"
     inkscape:window-width="1920"
     inkscape:window-height="974"
     inkscape:window-x="-11"
     inkscape:window-y="-11"
     inkscape:window-maximized="1"
     inkscape:current-layer="layer3" /><g
     inkscape:groupmode="layer"
     id="layer3"
     inkscape:label="Layer 3"
     style="opacity:1;fill:#000000"><path
       style="fill:#000000;stroke-width:0.03"
       d="M 7.5,4.5 C 3.4652643,4.5 0,7.7478101 0,12 0,16.043496 3.2948793,19.5 7.5,19.5 8.3514143,19.5 9,18.822553 9,18 9,17.217853 8.3571866,16.5 7.5,16.5 4.8971535,16.5 3,14.366218 3,12 3,9.5031695 5.0296279,7.5 7.5,7.5 8.3776789,7.5 9,6.7828523 9,6 9,5.1634164 8.3368533,4.5 7.5,4.5 Z"
       id="path3"
       sodipodi:nodetypes="sssssssss" /><path
       style="opacity:1;fill:#000000;stroke-width:0.03"
       d="m 16.5,4.5 c 4.034736,0 7.5,3.2478101 7.5,7.5 0,4.043496 -3.294879,7.5 -7.5,7.5 C 15.648586,19.5 15,18.822553 15,18 15,17.217853 15.642813,16.5 16.5,16.5 19.102846,16.5 21,14.366218 21,12 21,9.5031695 18.970372,7.5 16.5,7.5 15.622321,7.5 15,6.7828523 15,6 15,5.1634164 15.663147,4.5 16.5,4.5 Z"
       id="path3-7"
       sodipodi:nodetypes="sssssssss" /><path
       style="fill:#000000;stroke-width:0.03"
       d="m 6,12 c 0,0.897593 0.7178533,1.5 1.5,1.5 h 9 c 0.920682,0 1.5,-0.729398 1.5,-1.5 0,-0.845642 -0.66013,-1.5 -1.5,-1.5 h -9 C 6.6832195,10.5 6,11.188992 6,12 Z"
       id="path4"
       sodipodi:nodetypes="sssssss" /></g></svg>
