<?xml version="1.0" encoding="UTF-8" standalone="no"?>
<!-- Uploaded to: SVG Repo, www.svgrepo.com, Generator: SVG Repo Mixer Tools -->

<svg
   fill="#000000"
   width="800px"
   height="800px"
   viewBox="0 0 24 24"
   version="1.1"
   id="svg1"
   sodipodi:docname="link2.svg"
   inkscape:version="1.4 (86a8ad7, 2024-10-11)"
   xml:space="preserve"
   xmlns:inkscape="http://www.inkscape.org/namespaces/inkscape"
   xmlns:sodipodi="http://sodipodi.sourceforge.net/DTD/sodipodi-0.dtd"
   xmlns="http://www.w3.org/2000/svg"
   xmlns:svg="http://www.w3.org/2000/svg"><defs
     id="defs1" /><sodipodi:namedview
     id="namedview1"
     pagecolor="#505050"
     bordercolor="#eeeeee"
     borderopacity="1"
     inkscape:showpageshadow="0"
     inkscape:pageopacity="0"
     inkscape:pagecheckerboard="0"
     inkscape:deskcolor="#505050"
     inkscape:zoom="0.91875"
     inkscape:cx="420.68027"
     inkscape:cy="382.58503"
     inkscape:window-width="1920"
     inkscape:window-height="974"
     inkscape:window-x="-11"
     inkscape:window-y="-11"
     inkscape:window-maximized="1"
     inkscape:current-layer="svg1" /><path
     id="path3"
     style="opacity:1;fill:#000000;stroke-width:0.0337145"
     d="M 15.51695,4.2496343e-4 C 13.360141,0.02202586 11.224906,0.86676278 9.6217877,2.4698821 c -0.6650119,0.6650129 -0.6647974,1.7191866 4e-7,2.3839852 0.6220989,0.6221006 1.6865279,0.6974558 2.3839829,4e-7 1.963101,-1.9631031 5.167822,-1.984129 7.151949,-2e-7 1.880334,1.8803362 2.068372,5.0835156 0,7.1518905 -0.681171,0.681171 -0.62154,1.762446 -1e-6,2.383984 0.653648,0.65365 1.707401,0.676585 2.383984,0 3.341633,-3.341635 3.213197,-8.7066598 0,-11.91986 C 19.852184,0.78036157 17.673759,-0.02117514 15.51695,4.2496343e-4 Z M 15.58003,6.7355594 c -0.428569,5.73e-4 -0.856575,0.1685886 -1.19028,0.5022936 l -7.1519446,7.151891 c -0.6490612,0.649062 -0.6444745,1.739509 -5e-7,2.383984 0.7132795,0.71328 1.7624441,0.621541 2.3839832,1e-6 L 16.773736,9.6218386 c 0.731628,-0.7316282 0.612366,-1.7716198 1e-6,-2.3839856 C 16.437739,6.9018546 16.008602,6.7349857 15.580033,6.7355594 Z M 3.6619592,9.1231666 C 3.2321919,9.1231397 2.802408,9.289332 2.4699019,9.6218385 c -3.20623509,3.2062395 -3.37903683,8.5408215 2e-7,11.9198615 3.2131966,3.213201 8.5782149,3.341636 11.9198489,0 0.676582,-0.676584 0.653648,-1.730338 -1e-6,-2.383985 -0.621539,-0.621541 -1.702812,-0.681172 -2.383983,0 -2.0683723,2.068374 -5.2715478,1.880336 -7.151882,0 -1.9841266,-1.98413 -1.9631012,-5.188854 -2e-7,-7.151957 0.6974546,-0.697455 0.6220998,-1.761819 0,-2.3839195 C 4.5214892,9.2894391 4.0917298,9.1231933 3.6619626,9.1231666 Z"
     inkscape:label="path1" /></svg>
