<?xml version="1.0" encoding="UTF-8" standalone="no"?>
<!-- Uploaded to: SVG Repo, www.svgrepo.com, Generator: SVG Repo Mixer Tools -->

<svg
   fill="#000000"
   width="800px"
   height="800px"
   viewBox="0 0 32 32"
   version="1.1"
   id="svg1"
   sodipodi:docname="communication-discord.svg"
   inkscape:version="1.3.2 (091e20e, 2023-11-25, custom)"
   xmlns:inkscape="http://www.inkscape.org/namespaces/inkscape"
   xmlns:sodipodi="http://sodipodi.sourceforge.net/DTD/sodipodi-0.dtd"
   xmlns="http://www.w3.org/2000/svg"
   xmlns:svg="http://www.w3.org/2000/svg">
  <defs
     id="defs1" />
  <sodipodi:namedview
     id="namedview1"
     pagecolor="#ffffff"
     bordercolor="#000000"
     borderopacity="0.25"
     inkscape:showpageshadow="2"
     inkscape:pageopacity="0.0"
     inkscape:pagecheckerboard="0"
     inkscape:deskcolor="#d1d1d1"
     inkscape:zoom="0.64625"
     inkscape:cx="400"
     inkscape:cy="400.77369"
     inkscape:window-width="1920"
     inkscape:window-height="991"
     inkscape:window-x="1671"
     inkscape:window-y="-9"
     inkscape:window-maximized="1"
     inkscape:current-layer="svg1" />
  <title
     id="title1">discord</title>
  <path
     d="m 21.323403,20.448895 c -1.611466,-0.105583 -2.878457,-1.438695 -2.878457,-3.068292 0,-0.05439 0.0011,-0.108782 0.0043,-0.163173 v 0.0075 c -0.0032,-0.05119 -0.0053,-0.110915 -0.0053,-0.171705 0,-1.626396 1.269124,-2.955243 2.870993,-3.052293 h 0.0085 c 1.609333,0.08745 2.88059,1.413099 2.88059,3.036296 0,0.06612 -0.0021,0.131178 -0.0064,0.196234 v -0.0085 c 0.0032,0.05332 0.0053,0.116247 0.0053,0.17917 0,1.624265 -1.270191,2.952044 -2.872058,3.043762 h -0.0085 z m -10.628641,0 C 9.0832957,20.343312 7.8163059,19.0102 7.8163059,17.380603 c 0,-0.05439 0.00107,-0.108782 0.00427,-0.163173 v 0.0075 c -0.0032,-0.05119 -0.00533,-0.110915 -0.00533,-0.171705 0,-1.626396 1.2691228,-2.955243 2.8709911,-3.052293 h 0.0085 c 1.609335,0.08745 2.880589,1.413099 2.880589,3.036296 0,0.06612 -0.0021,0.131178 -0.0064,0.196234 v -0.0085 c 0.0032,0.05119 0.0053,0.110915 0.0053,0.171705 0,1.626397 -1.269123,2.955243 -2.870993,3.052294 z M 27.083516,5.8401191 C 25.203294,4.9527997 23.019122,4.2510495 20.732567,3.8447169 L 20.57366,3.8212539 c -0.0053,-0.00107 -0.01173,-0.00213 -0.01813,-0.00213 -0.03733,0 -0.06932,0.020263 -0.08638,0.050125 v 0 c -0.249559,0.4383273 -0.520447,0.9854364 -0.764673,1.54641 l -0.04586,0.1183775 c -1.098489,-0.1759706 -2.36548,-0.2762207 -3.655933,-0.2762207 -1.290453,0 -2.557444,0.1002501 -3.793506,0.2932847 l 0.137578,-0.01813 C 12.058803,4.8610815 11.783649,4.3150389 11.4797,3.78606 l 0.04373,0.08212 C 11.5053,3.837252 11.47224,3.818055 11.43491,3.818055 c -0.0053,0 -0.01173,0 -0.01706,0.00107 h 0.0011 C 8.9734476,4.2489165 6.7882095,4.9496002 4.7469474,5.9062415 l 0.16104,-0.068255 c -0.01813,0.00747 -0.033061,0.020263 -0.04266,0.036261 v 0 C 1.8215651,10.183931 0,15.546241 0,21.334081 c 0,0.967306 0.05119152,1.921815 0.15037506,2.862458 l -0.0096,-0.117314 c 0.0032,0.03093 0.019197,0.05652 0.041593,0.07465 v 0 c 2.28228884,1.70745 4.93571624,3.083222 7.79924214,3.986539 l 0.1877022,0.05119 c 0.00853,0.0032 0.019197,0.0043 0.029862,0.0043 0.034128,0 0.063989,-0.016 0.08212,-0.04053 v 0 c 0.5705732,-0.767898 1.1134172,-1.638153 1.5837384,-2.551069 l 0.05012,-0.106649 c 0.0064,-0.0128 0.01066,-0.02879 0.01066,-0.04586 0,-0.04373 -0.02773,-0.07999 -0.06612,-0.09492 h -0.0011 c -0.9725974,-0.3754 -1.7948613,-0.775335 -2.577665,-1.233925 l 0.08212,0.04479 c -0.030928,-0.01813 -0.051191,-0.05119 -0.051191,-0.08852 0,-0.03306 0.015997,-0.06292 0.040527,-0.08105 v 0 c 0.167439,-0.125846 0.3359444,-0.255957 0.495918,-0.388202 0.017064,-0.01386 0.03946,-0.0224 0.062923,-0.0224 0.014931,0 0.028795,0.0032 0.040527,0.0085 h -0.00107 c 2.3548092,1.131545 5.1191522,1.792769 8.0370682,1.792769 2.917918,0 5.683327,-0.661224 8.151185,-1.841828 l -0.114114,0.04906 c 0.0128,-0.0064 0.02666,-0.0096 0.04266,-0.0096 0.02346,0 0.04586,0.0085 0.06292,0.0224 v 0 c 0.159974,0.132244 0.327412,0.264489 0.496984,0.389268 0.02453,0.0192 0.04053,0.04906 0.04053,0.08212 0,0.03733 -0.02026,0.06932 -0.04906,0.08745 v 0 c -0.704949,0.421263 -1.527214,0.820131 -2.383606,1.149676 l -0.111981,0.03839 c -0.03839,0.01493 -0.06612,0.05226 -0.06612,0.09492 0,0.01706 0.0043,0.03306 0.01173,0.04693 v -0.0011 c 0.534312,1.02383 1.076089,1.893019 1.675457,2.717416 l -0.04266,-0.06079 c 0.01813,0.0256 0.04906,0.04266 0.08212,0.04266 0.01066,0 0.02133,-0.0021 0.03093,-0.0043 h -0.0011 c 3.055494,-0.951309 5.714254,-2.32708 8.069063,-4.086788 l -0.06932,0.05013 c 0.02346,-0.01706 0.03839,-0.04373 0.04159,-0.07359 v 0 C 31.947738,23.245135 32,22.274629 32,21.292392 32,15.51735 30.174169,10.168904 27.069617,5.7920311 l 0.05546,0.083186 c -0.0085,-0.017064 -0.02346,-0.030928 -0.04053,-0.038394 v 0 z"
     id="path1"
     style="stroke-width:1.06649" />
</svg>
