<?xml version="1.0" encoding="UTF-8" standalone="no"?>
<!-- Uploaded to: SVG Repo, www.svgrepo.com, Generator: SVG Repo Mixer Tools -->

<svg
   width="800px"
   height="800px"
   viewBox="0 -22.5 256 256"
   version="1.1"
   preserveAspectRatio="xMidYMid"
   id="svg5"
   sodipodi:docname="google-meet-svgrepo-com.svg"
   inkscape:version="1.3.2 (091e20e, 2023-11-25, custom)"
   xmlns:inkscape="http://www.inkscape.org/namespaces/inkscape"
   xmlns:sodipodi="http://sodipodi.sourceforge.net/DTD/sodipodi-0.dtd"
   xmlns="http://www.w3.org/2000/svg"
   xmlns:svg="http://www.w3.org/2000/svg">
  <defs
     id="defs5" />
  <sodipodi:namedview
     id="namedview5"
     pagecolor="#ffffff"
     bordercolor="#000000"
     borderopacity="0.25"
     inkscape:showpageshadow="2"
     inkscape:pageopacity="0.0"
     inkscape:pagecheckerboard="0"
     inkscape:deskcolor="#d1d1d1"
     inkscape:zoom="0.87504464"
     inkscape:cx="501.68869"
     inkscape:cy="454.83394"
     inkscape:window-width="1920"
     inkscape:window-height="991"
     inkscape:window-x="1671"
     inkscape:window-y="-9"
     inkscape:window-maximized="1"
     inkscape:current-layer="svg5" />
  <path
     id="path1"
     d="m 203.34112,155.2936 c 0,0 0.1208,-93.027173 -0.0905,-139.533899 C 202.49312,4.8478672 191.24291,-1.5067724 181.14616,0 H 59.98375 L 6.25e-4,59.98375 c 0.06012865,44.96591 -0.12042379,89.9379 0.090676,134.89999 0.75803301,10.91137 12.007573,17.26682 22.104415,15.76001 55.127851,-0.0603 110.261804,0.12075 165.385834,-0.0907 10.91125,-0.7581 17.26641,-12.00773 15.75968,-22.10439 -3e-5,-11.05148 -1.1e-4,-33.15444 -1.1e-4,-33.15444 M 59.984375,150.66 V 59.98375 H 144.8225 l -1e-4,90.67625 z M 247.52,23.390625 c -7.27454,0.896957 -11.81208,7.768658 -17.65118,11.679705 -8.84253,7.254682 -26.52757,21.764045 -26.52757,21.764045 l -1.3e-4,98.458605 38.47701,31.55952 c 10.06386,6.82604 16.05337,-5.67742 14.18562,-14.21542 -0.12207,-47.42696 0.24444,-94.878384 -0.1838,-142.29003 C 255.086,26.464283 251.43657,23.501526 247.52,23.390625 Z M 59.984375,59.98125 c 0.0026,0.0027 -0.0035,0.0025 0,0 z"
     sodipodi:nodetypes="ccssccccccssccscccccscccc" />
</svg>
