<?xml version="1.0" encoding="UTF-8" standalone="no"?>
<!-- Uploaded to: SVG Repo, www.svgrepo.com, Generator: SVG Repo Mixer Tools -->

<svg
   width="800px"
   height="800px"
   viewBox="0 0 48 48"
   version="1.1"
   id="svg11"
   sodipodi:docname="communication-slack.svg"
   inkscape:version="1.3.2 (091e20e, 2023-11-25, custom)"
   xmlns:inkscape="http://www.inkscape.org/namespaces/inkscape"
   xmlns:sodipodi="http://sodipodi.sourceforge.net/DTD/sodipodi-0.dtd"
   xmlns="http://www.w3.org/2000/svg"
   xmlns:svg="http://www.w3.org/2000/svg">
  <defs
     id="defs11" />
  <sodipodi:namedview
     id="namedview11"
     pagecolor="#ffffff"
     bordercolor="#000000"
     borderopacity="0.25"
     inkscape:showpageshadow="2"
     inkscape:pageopacity="0.0"
     inkscape:pagecheckerboard="0"
     inkscape:deskcolor="#d1d1d1"
     inkscape:zoom="0.64625"
     inkscape:cx="400"
     inkscape:cy="400.77369"
     inkscape:window-width="1920"
     inkscape:window-height="991"
     inkscape:window-x="1671"
     inkscape:window-y="-9"
     inkscape:window-maximized="1"
     inkscape:current-layer="svg11" />
  <title
     id="title1">slack_1</title>
  <path
     id="path3"
     d="M 30.327224,9.9767316e-5 A 5.0181773,5.0181736 0 0 0 25.30909,5.0182307 V 17.672798 a 5.0181989,5.0181952 0 0 0 10.036397,0 V 5.0182307 A 5.0181773,5.0181736 0 0 0 30.327224,9.9767316e-5 Z M 17.297691,0.01403437 a 5.0181773,5.0181736 0 0 0 -4.643178,5.00419633 5.0181773,5.0181736 0 0 0 5.018263,5.0181303 h 5.018135 V 5.0182307 A 5.0181773,5.0181736 0 0 0 17.297691,0.01403437 Z M 5.0181992,12.654538 a 5.0181992,5.0181955 0 0 0 0,10.036391 H 17.672776 a 5.0181992,5.0181955 0 1 0 0,-10.036391 z m 37.9636018,0 a 5.0181773,5.0181736 0 0 0 -5.018135,5.01826 v 5.018131 h 5.018135 a 5.0181992,5.0181955 0 1 0 0,-10.036391 z M 5.0181992,25.309106 a 5.0181989,5.0181952 0 0 0 0,10.03639 5.0181773,5.0181736 0 0 0 5.0181348,-5.018259 v -5.018131 z m 12.6545768,0 a 5.0181773,5.0181736 0 0 0 -5.018263,5.018131 v 12.654567 a 5.018199,5.0181953 0 0 0 10.036398,0 V 30.327237 a 5.0181773,5.0181736 0 0 0 -5.018135,-5.018131 z m 12.654448,0 a 5.0181989,5.0181952 0 0 0 0,10.03639 h 12.654577 a 5.0181989,5.0181952 0 0 0 0,-10.03639 z M 25.30909,37.963673 v 5.018131 a 5.0181989,5.0181952 0 0 0 10.036397,0 5.0181773,5.0181736 0 0 0 -5.018263,-5.018131 z"
     inkscape:label="path1"
     style="stroke-width:1.09091" />
</svg>
