<?xml version="1.0" encoding="UTF-8" standalone="no"?>
<!-- Uploaded to: SVG Repo, www.svgrepo.com, Generator: SVG Repo Mixer Tools -->

<svg
   fill="#000000"
   width="800px"
   height="800px"
   viewBox="0 0 256 256"
   id="Flat"
   version="1.1"
   sodipodi:docname="ellipsis_vertical.svg"
   inkscape:version="1.3.2 (091e20e, 2023-11-25, custom)"
   xmlns:inkscape="http://www.inkscape.org/namespaces/inkscape"
   xmlns:sodipodi="http://sodipodi.sourceforge.net/DTD/sodipodi-0.dtd"
   xmlns="http://www.w3.org/2000/svg"
   xmlns:svg="http://www.w3.org/2000/svg">
  <defs
     id="defs1" />
  <sodipodi:namedview
     id="namedview1"
     pagecolor="#ffffff"
     bordercolor="#000000"
     borderopacity="0.25"
     inkscape:showpageshadow="2"
     inkscape:pageopacity="0.0"
     inkscape:pagecheckerboard="0"
     inkscape:deskcolor="#d1d1d1"
     inkscape:zoom="0.70710678"
     inkscape:cx="326.68333"
     inkscape:cy="340.82547"
     inkscape:window-width="1280"
     inkscape:window-height="935"
     inkscape:window-x="3591"
     inkscape:window-y="42"
     inkscape:window-maximized="1"
     inkscape:current-layer="Flat" />
  <path
     d="m 127.99991,155.99958 c -11.32552,0 -21.53593,-6.82238 -25.86977,-17.2856 -4.333832,-10.46322 -1.93755,-22.50655 6.07077,-30.51488 17.63901,-17.639022 47.80046,-5.14935 47.80046,19.79902 -0.0153,15.45845 -12.54301,27.9862 -28.00146,28.00146 z M 156.00137,28.057026 c 0,-24.9483682 -30.16145,-37.438036 -47.80046,-19.7990137 -8.00832,8.0083187 -10.404602,20.0516627 -6.07077,30.5148687 4.33384,10.463228 14.54425,17.285603 25.86977,17.285603 15.45845,-0.01526 27.9862,-12.543008 28.00146,-28.001458 z m 0,199.941284 c 0,-24.94837 -30.16145,-37.43803 -47.80046,-19.79901 -8.00832,8.00832 -10.404602,20.05167 -6.07077,30.51487 4.33384,10.46322 14.54425,17.2856 25.86977,17.2856 15.45845,-0.0153 27.9862,-12.54301 28.00146,-28.00146 z"
     id="path1"
     sodipodi:nodetypes="csscccsscccsscc"
     style="stroke-width:1.00005" />
</svg>
