<?xml version="1.0" encoding="UTF-8" standalone="no"?>
<!-- Uploaded to: SVG Repo, www.svgrepo.com, Generator: SVG Repo Mixer Tools -->

<svg
   fill="#000000"
   width="800px"
   height="800px"
   viewBox="0 0 256 256"
   id="Flat"
   version="1.1"
   sodipodi:docname="dots-three-outline-fill-svgrepo-com.svg"
   inkscape:version="1.3.2 (091e20e, 2023-11-25, custom)"
   xmlns:inkscape="http://www.inkscape.org/namespaces/inkscape"
   xmlns:sodipodi="http://sodipodi.sourceforge.net/DTD/sodipodi-0.dtd"
   xmlns="http://www.w3.org/2000/svg"
   xmlns:svg="http://www.w3.org/2000/svg">
  <defs
     id="defs1" />
  <sodipodi:namedview
     id="namedview1"
     pagecolor="#ffffff"
     bordercolor="#000000"
     borderopacity="0.25"
     inkscape:showpageshadow="2"
     inkscape:pageopacity="0.0"
     inkscape:pagecheckerboard="0"
     inkscape:deskcolor="#d1d1d1"
     inkscape:zoom="0.70710678"
     inkscape:cx="327.39044"
     inkscape:cy="567.09964"
     inkscape:window-width="1680"
     inkscape:window-height="961"
     inkscape:window-x="-9"
     inkscape:window-y="23"
     inkscape:window-maximized="1"
     inkscape:current-layer="Flat" />
  <path
     d="m 155.99935,127.99986 c 0,11.32552 -6.82238,21.53593 -17.2856,25.86977 -10.46322,4.33383 -22.50655,1.93755 -30.51488,-6.07077 -17.639021,-17.63901 -5.14935,-47.80046 19.79902,-47.80046 15.45845,0.0153 27.9862,12.54301 28.00146,28.00146 z M 28.056797,99.9984 c -24.9483677,0 -37.4380355,30.16145 -19.7990132,47.80046 8.0083182,8.00832 20.0516622,10.4046 30.5148682,6.07077 10.463228,-4.33384 17.285603,-14.54425 17.285603,-25.86977 -0.01526,-15.45845 -12.543008,-27.9862 -28.001458,-28.00146 z m 199.941283,0 c -24.94837,0 -37.43803,30.16145 -19.79901,47.80046 8.00832,8.00832 20.05167,10.4046 30.51487,6.07077 10.46322,-4.33384 17.2856,-14.54425 17.2856,-25.86977 -0.0153,-15.45845 -12.54301,-27.9862 -28.00146,-28.00146 z"
     id="path1"
     sodipodi:nodetypes="csscccsscccsscc"
     style="stroke-width:1.00005" />
</svg>
