<?xml version="1.0" standalone="no"?>
<!DOCTYPE svg PUBLIC "-//W3C//DTD SVG 20010904//EN"
 "http://www.w3.org/TR/2001/REC-SVG-20010904/DTD/svg10.dtd">
<svg version="1.0" xmlns="http://www.w3.org/2000/svg"
 width="529.000000pt" height="190.000000pt" viewBox="0 0 529.000000 190.000000"
 preserveAspectRatio="xMidYMid meet">

<g transform="translate(0.000000,190.000000) scale(0.100000,-0.100000)"
fill="#000000" stroke="none">
<path d="M502 1880 c-287 -52 -462 -245 -462 -509 0 -153 53 -274 162 -376 64
-59 98 -80 283 -170 277 -136 325 -179 325 -292 -1 -99 -65 -179 -167 -209
-43 -12 -82 -15 -162 -12 -121 6 -204 31 -326 98 -124 69 -148 49 -143 -122 3
-103 4 -108 33 -138 105 -110 434 -170 668 -122 273 57 448 234 475 480 32
283 -91 458 -426 607 -287 127 -342 174 -342 294 0 123 86 191 240 191 88 0
165 -21 282 -77 54 -26 103 -43 112 -40 28 11 38 58 34 163 -3 117 -10 130
-91 171 -113 57 -356 88 -495 63z"/>
<path d="M4656 1880 c-285 -45 -482 -184 -601 -425 -135 -271 -150 -687 -36
-980 86 -221 257 -373 492 -436 122 -33 356 -33 479 0 101 27 216 80 253 116
34 35 51 118 43 208 -7 77 -19 107 -43 107 -9 0 -51 -20 -93 -45 -96 -56 -173
-83 -270 -94 -270 -30 -456 106 -517 381 -26 113 -22 378 5 481 84 308 302
441 592 360 62 -17 120 -46 200 -97 30 -20 63 -36 73 -36 29 0 47 59 47 152 0
145 -22 182 -145 239 -129 61 -339 91 -479 69z"/>
<path d="M1393 1861 c-61 -11 -76 -27 -70 -76 9 -60 424 -1655 441 -1692 23
-49 64 -58 256 -58 138 0 170 3 197 18 18 9 37 25 42 35 5 9 68 265 140 567
73 303 137 568 143 590 10 38 18 10 162 -558 111 -436 157 -603 172 -617 26
-26 105 -40 229 -40 131 0 203 14 234 44 19 20 61 167 242 852 120 456 219
848 219 871 0 60 -18 68 -165 67 -123 0 -156 -8 -174 -42 -5 -10 -80 -323
-166 -697 -86 -374 -159 -691 -162 -705 -4 -17 -64 206 -184 689 -144 583
-181 718 -198 732 -42 34 -288 36 -352 3 -19 -9 -30 -26 -37 -56 -6 -24 -81
-335 -167 -693 -85 -357 -159 -658 -163 -668 -5 -12 -63 224 -161 655 -175
763 -175 763 -199 773 -26 10 -231 15 -279 6z"/>
</g>
</svg>
