<?xml version="1.0" encoding="UTF-8" standalone="no"?>
<!-- Uploaded to: SVG Repo, www.svgrepo.com, Generator: SVG Repo Mixer Tools -->

<svg
   width="800px"
   height="800px"
   viewBox="0 0 800 800"
   version="1.1"
   sodipodi:docname="system-ios.svg"
   inkscape:version="1.3.2 (091e20e, 2023-11-25, custom)"
   id="svg1"
   xmlns:inkscape="http://www.inkscape.org/namespaces/inkscape"
   xmlns:sodipodi="http://sodipodi.sourceforge.net/DTD/sodipodi-0.dtd"
   xmlns="http://www.w3.org/2000/svg"
   xmlns:svg="http://www.w3.org/2000/svg">
  <defs
     id="defs1" />
  <sodipodi:namedview
     id="namedview1"
     pagecolor="#ffffff"
     bordercolor="#000000"
     borderopacity="0.25"
     inkscape:showpageshadow="2"
     inkscape:pageopacity="0.0"
     inkscape:pagecheckerboard="0"
     inkscape:deskcolor="#d1d1d1"
     inkscape:zoom="0.9775"
     inkscape:cx="399.48849"
     inkscape:cy="400"
     inkscape:window-width="1920"
     inkscape:window-height="991"
     inkscape:window-x="1671"
     inkscape:window-y="-9"
     inkscape:window-maximized="1"
     inkscape:current-layer="svg1" />
  <path
     d="M 3.7190761,592.08828 H 69.874836 V 310.46413 H 3.7190761 Z M 36.664324,273.53182 c 20.723583,0 36.930266,-15.94143 36.930266,-35.86719 0,-20.19238 -16.206683,-36.13313 -36.930266,-36.13313 C 16.206685,201.5315 0,217.47293 0,237.66463 c 0,19.92644 16.206685,35.86719 36.664324,35.86719 z M 290.13693,202.3266 c -111.85115,0 -181.99533,76.25195 -181.99533,198.20339 0,121.95142 70.13738,197.93812 181.99533,197.93812 111.5859,0 181.73006,-75.9867 181.73006,-197.93812 0,-121.95144 -70.13737,-198.20339 -181.73006,-198.20339 z m 0,58.45098 c 68.28056,0 111.85118,54.20004 111.85118,139.75105 0,85.28438 -43.57199,139.48579 -111.85118,139.48579 -68.54581,0 -111.85115,-54.20005 -111.85115,-139.48579 0,-85.54965 43.3067,-139.75105 111.85115,-139.75105 z M 499.7737,484.22145 c 2.92252,70.67471 60.84171,114.24529 149.04871,114.24529 C 741.54764,598.46674 800,552.76866 800,479.97049 800,422.84852 767.05475,390.70042 689.20987,372.90081 l -44.10385,-10.09619 c -47.02642,-11.15859 -66.42101,-26.03694 -66.42101,-51.54267 0,-31.88218 29.2255,-53.13696 72.53152,-53.13696 43.83791,0 73.8578,21.52072 77.04772,57.38791 h 65.35863 c -1.59412,-67.4841 -57.38792,-113.18426 -141.87309,-113.18426 -83.42758,0 -142.6757,45.96338 -142.6757,113.98004 0,54.73123 33.47645,88.73956 104.14502,104.9476 l 49.68315,11.69048 c 48.35477,11.42453 68.01528,27.36527 68.01528,54.99649 0,31.88216 -32.14811,54.73121 -78.37404,54.73121 -46.7605,0 -82.09444,-23.1143 -86.3454,-58.45097 h -66.42101 z"
     fill="#000000"
     id="path1"
     style="stroke-width:3.12501" />
</svg>
